<?xml version="1.0" encoding="UTF-8"?>
<svg version="1.1" viewBox="0 0 2048 1362" width="1280" height="1280" xmlns="http://www.w3.org/2000/svg">
<path transform="translate(817,101)" d="m0 0h440l30 3 29 5 31 8 20 7 30 13 23 12 24 15 18 13 11 9 14 12 28 28 9 11 10 13 18 27 12 21 11 23 11 28 8 27 5 24 4 27 2 27v426l-1 46-2 23-5 27-8 30-10 28-8 18-13 26-12 19-14 20-11 13-9 11-11 12-14 14-11 9-12 10-13 10-20 13-21 12-22 11-23 9-28 9-28 7-20 3-28 2-42 1h-420l-29-2-28-4-24-5-27-8-28-11-29-14-23-14-16-11-16-12-15-13-32-32-11-14-12-16-10-15-11-19-12-23-8-19-9-25-6-21-6-31-4-36v-443l1-37 2-23 4-23 8-30 10-30 11-24 10-20 12-20 13-18 11-14 13-15 15-16 8-7 12-11 10-8 13-10 15-10 20-12 23-12 24-10 24-8 26-7 26-5 31-3z" fill="#33B2E5"/>
<path transform="translate(1007,228)" d="m0 0h31l30 2 29 4 29 6 28 8 20 7 26 11 28 14 20 12 19 13 16 12 13 11 11 9 31 31 9 11 10 12 13 18 10 15 14 24 8 15 12 27 10 28 7 24 6 26 4 26 3 32v46l-3 32-5 29-9 36-10 29-10 23-12 25-14 24-12 18-14 19-9 11-10 11-7 8-21 21-11 9-9 8-20 15-24 16-21 12-15 8-30 13-25 9-28 8-29 6-31 4-29 2h-28l-25-2-31-4-11-2-6 1-21 12-24 14-28 16-24 14-26 15-24 14-26 15-28 16-20 12h-3l-1-133v-128l-9-11-13-16-12-17-10-15-12-21-12-23-12-29-11-33-6-24-5-27-3-25-1-13v-53l3-30 5-29 8-32 10-30 9-21 12-25 9-17 12-19 11-16 12-16 13-15 9-10 25-25 11-9 13-11 19-14 17-11 19-11 23-12 25-11 35-12 36-9 30-5 20-2z" fill="#33B2E5"/>
<path transform="translate(1007,228)" d="m0 0h31l30 2 29 4 29 6 28 8 20 7 26 11 28 14 20 12 19 13 16 12 13 11 11 9 31 31 9 11 10 12 13 18 10 15 14 24 8 15 12 27 10 28 7 24 6 26 4 26 3 32v46l-3 32-5 29-9 36-10 29-10 23-12 25-14 24-12 18-14 19-9 11-10 11-7 8-21 21-11 9-9 8-20 15-24 16-21 12-15 8-30 13-25 9-28 8-29 6-31 4-29 2h-28l-25-2-31-4-11-2-6 1-21 12-24 14-28 16-24 14-26 15-24 14-26 15-28 16-20 12h-3l-1-133v-128l-9-11-13-16-12-17-10-15-12-21-12-23-12-29-11-33-6-24-5-27-3-25-1-13v-53l3-30 5-29 8-32 10-30 9-21 12-25 9-17 12-19 11-16 12-16 13-15 9-10 25-25 11-9 13-11 19-14 17-11 19-11 23-12 25-11 35-12 36-9 30-5 20-2zm8 73-26 2-22 3-29 6-27 8-26 10-25 12-22 13-16 11-13 10-11 9-12 11-10 9-7 8-12 13-13 17-13 19-10 17-13 25-13 33-8 28-5 24-3 22-1 12v52l3 27 6 29 9 31 11 27 10 21 16 27 12 17 13 16 18 20 7 8 1 2v162l6-2 17-10 28-16 24-14 52-30 14-8 9 1 27 6 29 4 13 1h43l29-3 22-4 24-6 27-9 23-10 16-8 18-10 18-12 16-12 13-11 12-11 18-18 9-11 13-16 14-21 11-19 9-17 8-19 9-25 8-30 5-30 2-19v-49l-3-28-5-26-7-26-9-26-9-20-13-25-13-20-11-15-8-10-12-14-24-24-11-9-15-12-24-16-21-12-27-13-27-10-25-7-29-6-27-3-19-1z" fill="#FAFAFA"/>
<path transform="translate(1275,515)" d="m0 0 3 1-1 6-10 21-10 19-12 23-17 33-24 46-15 28-18 35-11 20-8 16-7 9-8 7-9 4-4 1h-11l-10-3-12-7-13-10-17-12-126-91-15-10-10-4-4-1h-18l-12 4-11 7-10 10-7 8-12 13-7 8-11 12-7 8-15 16-11 12-9 9-6 1 1-7 5-12 12-25 80-160 7-11 7-7 12-6h18l12 5 144 104 28 20 12 6 11 3h8l12-3 12-6 10-9 8-10 13-15 72-84 9-10 10-11z" fill="#FAFAFA"/>
<path transform="translate(1376,876)" d="m0 0 2 1-13 21-16 21-9 12-10 14-13 16-9 10-14 14h-2v2h-2v2l-11 9-4 2v2l-12 9-17 13-15 10-24 14-19 10-28 12-19 7-26 8-36 8-32 4-39 2-43-2-28-4-11-2h-7l-35 16-19 9-16 8-26 12-13 4-18 8-10 4-17 9-23 13-4 1 3-3 25-14 24-14 26-15 27-16 23-13 24-14 26-15 21-12 10 1 26 4 19 2 16 1h28l29-2 31-4 29-6 28-8 20-7 26-11 16-8 21-11 19-12 17-12 13-10 11-9 10-9 8-7 20-20 9-11 8-9 15-20z" fill="#29A3C8"/> -->
<path transform="translate(633,490)" d="m0 0 1 3-9 24-7 24-6 26-5 32-2 22v53l3 31 5 29 6 25 8 26 10 26 11 24 10 19 14 23 12 17 10 13 9 11 8 10v68l-1 98-3-4-3-21-2-13-2-24-3-29-3-45-13-15-12-16-13-18-13-21-13-24-12-27-9-24-8-27-6-25-4-26-3-39v-44l3-31 4-22 5-21 4-13 8-25 3-8 6-15 11-25z" fill="#29A3C8"/>
<path transform="translate(1250,573)" d="m0 0 2 1-36 72-9 17-11 23-12 24-14 30-5 12-15 30-9 10-9 6-9 3h-11l-10-4-10-6-34-24-16-12-20-14-19-14-14-10-18-13-17-12-13-10-15-10-14-7-12-2-14 1-10 3-10 6-10 9-11 9-10 9-13 10-8 7h-2v2l-8 7-3 3-2-1 15-16 10-11 7-8 11-12 7-8 14-15 9-7 12-5 4-1h18l12 4 16 10 16 12 36 26 14 10 90 65 11 7 7 3 5 1h11l11-4 6-4 8-9 9-16 8-16 15-29 12-22 20-39 11-20 8-16z" fill="#29A3C8"/>
<path transform="translate(1250,573)" d="m0 0 2 1-36 72-4 7-3 1 2-6 12-23 10-19z" fill="#2AA5CC"/>
<path transform="translate(1376,876)" d="m0 0 2 1-12 19-4 2 2-4z" fill="#2BA6CF"/>
<path transform="translate(633,490)" d="m0 0 1 3-7 18-2-1 3-9z" fill="#2BA5CD"/>
<path transform="translate(1233,608)" d="m0 0 1 2-7 14h-2l1-4 6-11z" fill="#29A3C8"/>
</svg>
